<svg viewBox="0 0 198 39" fill="none" xmlns="http://www.w3.org/2000/svg" class="icon-logo header_logo_pic">
                    <path d="M102.686 0.229187C105.046 0.229187 107.021 0.986428 108.61 2.50091C110.199 4.00054 110.993 5.95304 110.993 8.35839C110.993 10.7637 110.199 12.7237 108.61 14.2381C107.021 15.7378 105.046 16.4876 102.686 16.4876C100.651 16.4876 98.8846 15.9159 97.3849 14.7727C95.8853 13.6145 94.9425 12.0778 94.5564 10.1624H92.552V16.1535H88.3203V0.563264H92.552V6.55437H94.5564C94.9425 4.639 95.8853 3.10967 97.3849 1.96639C98.8846 0.808254 100.651 0.229187 102.686 0.229187ZM99.9016 11.2092C100.629 11.907 101.557 12.256 102.686 12.256C103.814 12.256 104.735 11.907 105.447 11.2092C106.175 10.4965 106.539 9.54622 106.539 8.35839C106.539 7.17056 106.175 6.22772 105.447 5.52987C104.735 4.81718 103.814 4.46083 102.686 4.46083C101.557 4.46083 100.629 4.81718 99.9016 5.52987C99.1889 6.22772 98.8326 7.17056 98.8326 8.35839C98.8326 9.54622 99.1889 10.4965 99.9016 11.2092Z" fill="#0078DC"></path>
                    <path d="M122.104 0.563264H126.336V16.1535H122.104V10.0956H116.781V16.1535H112.55V0.563264H116.781V6.2203H122.104V0.563264Z" fill="#0078DC"></path>
                    <path d="M128.775 0.563264H133.007V9.16017H133.051L140.401 0.563264H143.697V16.1535H139.465V7.55661H139.421L132.071 16.1535H128.775V0.563264Z" fill="#0078DC"></path>
                    <path d="M159.939 0.563264V16.1535H155.708V4.43855H150.385V16.1535H146.153V0.563264H159.939Z" fill="#0078DC"></path>
                    <path d="M168.459 0.563264C170.582 0.563264 172.163 1.06809 173.202 2.07775C174.257 3.07255 174.784 4.40144 174.784 6.0644C174.784 7.72736 174.257 9.06366 173.202 10.0733C172.163 11.0681 170.582 11.5655 168.459 11.5655H166.61V16.1535H162.378V0.563264H168.459ZM168.347 7.82387C168.986 7.82387 169.49 7.67539 169.862 7.37843C170.233 7.08147 170.418 6.64346 170.418 6.0644C170.418 5.48533 170.233 5.04732 169.862 4.75036C169.49 4.4534 168.986 4.30492 168.347 4.30492H166.61V7.82387H168.347Z" fill="#0078DC"></path>
                    <path d="M177.834 2.50091C179.423 0.986428 181.397 0.229187 183.758 0.229187C186.119 0.229187 188.094 0.986428 189.683 2.50091C191.271 4.00054 192.066 5.95304 192.066 8.35839C192.066 10.7637 191.271 12.7237 189.683 14.2381C188.094 15.7378 186.119 16.4876 183.758 16.4876C181.397 16.4876 179.423 15.7378 177.834 14.2381C176.245 12.7237 175.451 10.7637 175.451 8.35839C175.451 5.95304 176.245 4.00054 177.834 2.50091ZM186.52 5.52987C185.807 4.81718 184.887 4.46083 183.758 4.46083C182.63 4.46083 181.702 4.81718 180.974 5.52987C180.262 6.22772 179.905 7.17056 179.905 8.35839C179.905 9.54622 180.262 10.4965 180.974 11.2092C181.702 11.907 182.63 12.256 183.758 12.256C184.887 12.256 185.807 11.907 186.52 11.2092C187.247 10.4965 187.611 9.54622 187.611 8.35839C187.611 7.17056 187.247 6.22772 186.52 5.52987Z" fill="#0078DC"></path>
                    <path d="M103.621 23.2536L108.009 38.8438H103.71L101.528 31.071H101.483L98.9443 36.728H96.1603L93.6213 31.071H93.5768L91.3942 38.8438H87.0957L91.4832 23.2536H94.6236L97.5412 30.0465H97.5634L100.481 23.2536H103.621Z" fill="#0078DC"></path>
                    <path d="M113.476 34.9685H119.511V38.8438H109.244V23.2536H119.177V27.1289H113.476V28.9774H118.487V32.6523H113.476V34.9685Z" fill="#0078DC"></path>
                    <path d="M131.268 23.2536V27.1289H125.634V38.8438H121.402V23.2536H131.268Z" fill="#0078DC"></path>
                    <path d="M140.401 38.8438L139.443 35.9262H134.12L133.163 38.8438H128.486L134.521 23.2536H139.042L145.078 38.8438H140.401ZM135.189 32.5855H138.374L136.793 27.7079L135.189 32.5855Z" fill="#0078DC"></path>
                    <path d="M155.136 30.6478C157.289 31.019 158.365 32.2737 158.365 34.4118C158.365 35.9559 157.853 37.0844 156.828 37.7971C155.804 38.4949 154.445 38.8438 152.753 38.8438H145.871V23.2536H152.73C156.071 23.2536 157.741 24.5528 157.741 27.1511C157.741 28.8587 156.873 30.0094 155.136 30.6033V30.6478ZM152.018 26.7503H150.102V29.4229H152.018C153.131 29.4229 153.688 28.9626 153.688 28.042C153.688 27.1808 153.131 26.7503 152.018 26.7503ZM152.062 35.3472C153.398 35.3472 154.067 34.8423 154.067 33.8327C154.067 32.8527 153.398 32.3627 152.062 32.3627H150.102V35.3472H152.062Z" fill="#0078DC"></path>
                    <path d="M170.155 38.8438L169.197 35.9262H163.874L162.916 38.8438H158.239L164.275 23.2536H168.796L174.832 38.8438H170.155ZM164.943 32.5855H168.128L166.547 27.7079L164.943 32.5855Z" fill="#0078DC"></path>
                    <path d="M185.189 23.2536V27.1289H181.291V38.8438H177.06V27.1289H173.162V23.2536H185.189Z" fill="#0078DC"></path>
                    <path d="M198 23.2536V27.1289H194.102V38.8438H189.87V27.1289H185.973V23.2536H198Z" fill="#0078DC"></path>
                    <path fill-rule="evenodd" clip-rule="evenodd" d="M0 5.87062C0 2.62837 2.62837 0 5.87062 0C9.11287 0 11.7412 2.62837 11.7412 5.87062V13.4377H14.8335C14.9397 13.1043 15.0555 12.7719 15.1811 12.4408C18.9345 2.54639 29.9982 -2.43189 39.8926 1.3215C49.787 5.07488 54.7653 16.1386 51.0119 26.033C47.2585 35.9274 36.1948 40.9057 26.3004 37.1523C20.5568 34.9735 16.4698 30.3314 14.7857 24.8846H11.7412V32.4429C11.7412 35.6852 9.11287 38.3135 5.87062 38.3135C2.62837 38.3135 0 35.6852 0 32.4429V19.1611V5.87062ZM30.2103 26.8453C26.0083 25.2513 23.8941 20.5527 25.4881 16.3507C27.0821 12.1487 31.7807 10.0345 35.9827 11.6285C40.1847 13.2225 42.2988 17.9211 40.7048 22.1231C39.1109 26.3251 34.4123 28.4393 30.2103 26.8453Z" fill="url(#paint0_linear_1447_5325)"></path>
                    <path d="M41.0449 6.32742C41.0449 3.08517 43.6733 0.456802 46.9155 0.456802C50.1578 0.456802 52.7862 3.08517 52.7862 6.32742V32.8997C52.7862 36.142 50.1578 38.7703 46.9155 38.7703C43.6733 38.7703 41.0449 36.142 41.0449 32.8997V6.32742Z" fill="url(#paint1_linear_1447_5325)"></path>
                    <path fill-rule="evenodd" clip-rule="evenodd" d="M44.0853 2.04572C41.5261 4.00016 41.0534 7.64563 43.0296 10.1881L54.035 24.3474C55.1983 25.8441 56.9508 26.6249 58.7177 26.6154C60.4847 26.6249 62.2372 25.8441 63.4005 24.3474L74.4059 10.1881C76.3821 7.64563 75.9094 4.00016 73.3502 2.04572C70.791 0.0912877 67.1143 0.56799 65.1382 3.11047L58.7177 11.3708L52.2973 3.11047C50.3211 0.56799 46.6445 0.0912877 44.0853 2.04572Z" fill="url(#paint2_linear_1447_5325)"></path>
                    <path d="M64.7012 6.32742C64.7012 3.08517 67.3295 0.456802 70.5718 0.456802C73.814 0.456802 76.4424 3.08517 76.4424 6.32742V32.8997C76.4424 36.142 73.814 38.7703 70.5718 38.7703C67.3295 38.7703 64.7012 36.142 64.7012 32.8997V6.32742Z" fill="url(#paint3_linear_1447_5325)"></path>
                    <defs>
                        <linearGradient id="paint0_linear_1447_5325" x1="4.47923" y1="20.4054" x2="46.0365" y2="20.4054" gradientUnits="userSpaceOnUse">
                            <stop stop-color="#2370C6"></stop>
                            <stop offset="1" stop-color="#65C4F0"></stop>
                        </linearGradient>
                        <linearGradient id="paint1_linear_1447_5325" x1="46.9155" y1="0.456802" x2="46.9155" y2="38.7703" gradientUnits="userSpaceOnUse">
                            <stop offset="0.135417" stop-color="#2471C7"></stop>
                            <stop offset="1" stop-color="#0159A1"></stop>
                        </linearGradient>
                        <linearGradient id="paint2_linear_1447_5325" x1="47.1327" y1="4.98692" x2="68.9514" y2="6.70751" gradientUnits="userSpaceOnUse">
                            <stop offset="0.0001" stop-color="#2471C7"></stop>
                            <stop offset="1" stop-color="#4FA7E2"></stop>
                        </linearGradient>
                        <linearGradient id="paint3_linear_1447_5325" x1="68.4339" y1="7.69276" x2="70.5718" y2="38.7703" gradientUnits="userSpaceOnUse">
                            <stop offset="0.0596924" stop-color="#459ADC"></stop>
                            <stop offset="1" stop-color="#66C5F1"></stop>
                        </linearGradient>
                    </defs>
                </svg>