<svg width="130" height="27" viewBox="0 0 130 27" fill="none" xmlns="http://www.w3.org/2000/svg">
<path d="M67.4201 0.820312C68.9701 0.820312 70.2667 1.31749 71.3098 2.31185C72.3529 3.29646 72.8744 4.5784 72.8744 6.15767C72.8744 7.73695 72.3529 9.02376 71.3098 10.0181C70.2667 11.0027 68.9701 11.495 67.4201 11.495C66.0845 11.495 64.9244 11.1197 63.9398 10.3691C62.9552 9.60868 62.3362 8.5997 62.0827 7.34213H60.7666V11.2757H57.9883V1.03966H60.7666V4.97322H62.0827C62.3362 3.71565 62.9552 2.71154 63.9398 1.9609C64.9244 1.20051 66.0845 0.820312 67.4201 0.820312ZM65.5922 8.02941C66.0699 8.48759 66.6792 8.71668 67.4201 8.71668C68.161 8.71668 68.7654 8.48759 69.2333 8.02941C69.711 7.56147 69.9498 6.93756 69.9498 6.15767C69.9498 5.37779 69.711 4.75875 69.2333 4.30057C68.7654 3.83263 68.161 3.59867 67.4201 3.59867C66.6792 3.59867 66.0699 3.83263 65.5922 4.30057C65.1243 4.75875 64.8903 5.37779 64.8903 6.15767C64.8903 6.93756 65.1243 7.56147 65.5922 8.02941Z" fill="white"/>
<path d="M80.1696 1.03966H82.948V11.2757H80.1696V7.29826H76.6748V11.2757H73.8964V1.03966H76.6748V4.75388H80.1696V1.03966Z" fill="white"/>
<path d="M84.5494 1.03966H87.3278V6.6841H87.357L92.1826 1.03966H94.3468V11.2757H91.5684V5.63125H91.5392L86.7136 11.2757H84.5494V1.03966Z" fill="white"/>
<path d="M105.011 1.03966V11.2757H102.233V3.58404H98.7376V11.2757H95.9593V1.03966H105.011Z" fill="white"/>
<path d="M110.604 1.03966C111.998 1.03966 113.037 1.37111 113.719 2.03401C114.411 2.68717 114.757 3.55967 114.757 4.65152C114.757 5.74336 114.411 6.62073 113.719 7.28364C113.037 7.9368 111.998 8.26337 110.604 8.26337H109.391V11.2757H106.612V1.03966H110.604ZM110.531 5.80673C110.95 5.80673 111.282 5.70924 111.526 5.51427C111.769 5.31929 111.891 5.03171 111.891 4.65152C111.891 4.27132 111.769 3.98374 111.526 3.78876C111.282 3.59379 110.95 3.49631 110.531 3.49631H109.391V5.80673H110.531Z" fill="white"/>
<path d="M116.76 2.31185C117.803 1.31749 119.1 0.820312 120.65 0.820312C122.2 0.820312 123.496 1.31749 124.539 2.31185C125.582 3.29646 126.104 4.5784 126.104 6.15767C126.104 7.73695 125.582 9.02376 124.539 10.0181C123.496 11.0027 122.2 11.495 120.65 11.495C119.1 11.495 117.803 11.0027 116.76 10.0181C115.717 9.02376 115.195 7.73695 115.195 6.15767C115.195 4.5784 115.717 3.29646 116.76 2.31185ZM122.463 4.30057C121.995 3.83263 121.391 3.59867 120.65 3.59867C119.909 3.59867 119.299 3.83263 118.822 4.30057C118.354 4.75875 118.12 5.37779 118.12 6.15767C118.12 6.93756 118.354 7.56147 118.822 8.02941C119.299 8.48759 119.909 8.71668 120.65 8.71668C121.391 8.71668 121.995 8.48759 122.463 8.02941C122.941 7.56147 123.179 6.93756 123.179 6.15767C123.179 5.37779 122.941 4.75875 122.463 4.30057Z" fill="white"/>
<path d="M68.0338 15.9414L70.9145 26.1774H68.0923L66.6592 21.074H66.63L64.963 24.7883H63.1351L61.4681 21.074H61.4389L60.0058 26.1774H57.1836L60.0643 15.9414H62.1261L64.0417 20.4014H64.0564L65.972 15.9414H68.0338Z" fill="white"/>
<path d="M74.5037 23.6331H78.4666V26.1774H71.7254V15.9414H78.2472V18.4858H74.5037V19.6995H77.7939V22.1123H74.5037V23.6331Z" fill="white"/>
<path d="M86.186 15.9414V18.4858H82.4864V26.1774H79.708V15.9414H86.186Z" fill="white"/>
<path d="M92.182 26.1774L91.5533 24.2618H88.0584L87.4296 26.1774H84.3588L88.3216 15.9414H91.29L95.2529 26.1774H92.182ZM88.7603 22.0684H90.8514L89.8131 18.866L88.7603 22.0684Z" fill="white"/>
<path d="M101.856 20.7962C103.27 21.0399 103.977 21.8637 103.977 23.2675C103.977 24.2813 103.64 25.0222 102.968 25.4902C102.295 25.9484 101.403 26.1774 100.292 26.1774H95.7732V15.9414H100.277C102.471 15.9414 103.567 16.7944 103.567 18.5004C103.567 19.6215 102.997 20.377 101.856 20.767V20.7962ZM99.8091 18.2372H98.5516V19.992H99.8091C100.54 19.992 100.906 19.6897 100.906 19.0853C100.906 18.5199 100.54 18.2372 99.8091 18.2372ZM99.8384 23.8816C100.716 23.8816 101.154 23.5502 101.154 22.8873C101.154 22.2439 100.716 21.9222 99.8384 21.9222H98.5516V23.8816H99.8384Z" fill="white"/>
<path d="M111.717 26.1774L111.089 24.2618H107.594L106.965 26.1774H103.894L107.857 15.9414H110.825L114.788 26.1774H111.717ZM108.296 22.0684H110.387L109.348 18.866L108.296 22.0684Z" fill="white"/>
<path d="M121.588 15.9414V18.4858H119.029V26.1774H116.251V18.4858H113.692V15.9414H121.588Z" fill="white"/>
<path d="M129.999 15.9414V18.4858H127.44V26.1774H124.662V18.4858H122.103V15.9414H129.999Z" fill="white"/>
<path fill-rule="evenodd" clip-rule="evenodd" d="M0 4.52633C0 2.39757 1.7257 0.671875 3.85445 0.671875C5.98321 0.671875 7.70891 2.39757 7.70891 4.52633V9.49461H9.73916C9.80888 9.27571 9.88492 9.05747 9.96738 8.84009C12.4317 2.34375 19.6958 -0.924822 26.1921 1.53953C32.6885 4.00387 35.9571 11.2679 33.4927 17.7643C31.0284 24.2606 23.7643 27.5292 17.2679 25.0648C13.4969 23.6343 10.8135 20.5865 9.70777 17.0103H7.70891V21.9728C7.70891 24.1016 5.98321 25.8272 3.85445 25.8272C1.7257 25.8272 0 24.1016 0 21.9728V13.2524V4.52633ZM19.8351 18.2976C17.0762 17.251 15.6881 14.1661 16.7346 11.4072C17.7812 8.64833 20.8661 7.26022 23.625 8.30679C26.3839 9.35335 27.772 12.4383 26.7254 15.1972C25.6789 17.956 22.594 19.3441 19.8351 18.2976Z" fill="url(#paint0_linear_2385_6863)"/>
<path d="M26.9492 4.82711C26.9492 2.69835 28.6749 0.972656 30.8037 0.972656C32.9324 0.972656 34.6581 2.69835 34.6581 4.82711V22.2736C34.6581 24.4023 32.9324 26.128 30.8037 26.128C28.6749 26.128 26.9492 24.4023 26.9492 22.2736V4.82711Z" fill="url(#paint1_linear_2385_6863)"/>
<path fill-rule="evenodd" clip-rule="evenodd" d="M28.944 2.01269C27.2637 3.29591 26.9534 5.6894 28.2509 7.3587L35.4767 16.6552C36.2405 17.6379 37.3911 18.1505 38.5512 18.1443C39.7113 18.1505 40.862 17.6379 41.6257 16.6552L48.8515 7.3587C50.149 5.6894 49.8387 3.29591 48.1584 2.01269C46.4781 0.729471 44.0641 1.04246 42.7666 2.71176L38.5512 8.13524L34.3358 2.71176C33.0383 1.04246 30.6243 0.729471 28.944 2.01269Z" fill="url(#paint2_linear_2385_6863)"/>
<path d="M42.4805 4.82711C42.4805 2.69835 44.2062 0.972656 46.3349 0.972656C48.4637 0.972656 50.1894 2.69835 50.1894 4.82711V22.2736C50.1894 24.4023 48.4637 26.128 46.3349 26.128C44.2062 26.128 42.4805 24.4023 42.4805 22.2736V4.82711Z" fill="url(#paint3_linear_2385_6863)"/>
<defs>
<linearGradient id="paint0_linear_2385_6863" x1="2.94091" y1="14.0694" x2="30.226" y2="14.0694" gradientUnits="userSpaceOnUse">
<stop stop-color="white"/>
<stop offset="1" stop-color="#65C4F0"/>
</linearGradient>
<linearGradient id="paint1_linear_2385_6863" x1="30.8037" y1="0.972656" x2="30.8037" y2="26.128" gradientUnits="userSpaceOnUse">
<stop offset="0.135417" stop-color="#AADFF7"/>
<stop offset="1" stop-color="white"/>
</linearGradient>
<linearGradient id="paint2_linear_2385_6863" x1="32.1709" y1="4.60936" x2="45.3114" y2="5.00702" gradientUnits="userSpaceOnUse">
<stop offset="0.0001" stop-color="#AAE0F8"/>
<stop offset="1" stop-color="#4FA7E2"/>
</linearGradient>
<linearGradient id="paint3_linear_2385_6863" x1="44.9312" y1="5.72354" x2="46.3349" y2="26.128" gradientUnits="userSpaceOnUse">
<stop offset="0.0596924" stop-color="#62B3E7"/>
<stop offset="1" stop-color="#66C5F1"/>
</linearGradient>
</defs>
</svg>
