<svg width="57" height="32" viewBox="0 0 57 32" fill="none" xmlns="http://www.w3.org/2000/svg">
<path fill-rule="evenodd" clip-rule="evenodd" d="M55.0232 2.63111C55.4082 1.42181 55.0232 0.533203 53.1904 0.533203H47.1301C45.5892 0.533203 44.8788 1.30082 44.4935 2.14729C44.4935 2.14729 41.4116 9.22163 37.0457 13.8169C35.6332 15.1471 34.9911 15.5703 34.2206 15.5703C33.8355 15.5703 33.2778 15.147 33.2778 13.9378V2.63111C33.2778 1.17995 32.8306 0.533203 31.5464 0.533203H22.023C21.0601 0.533203 20.4809 1.20672 20.4809 1.84504C20.4809 3.22071 22.6638 3.53796 22.8888 7.40772V15.8122C22.8888 17.6549 22.5354 17.989 21.765 17.989C19.7105 17.989 14.7129 10.883 11.7489 2.75199C11.1681 1.1716 10.5855 0.533203 9.03661 0.533203H2.97628C1.24476 0.533203 0.898438 1.30082 0.898438 2.14729C0.898438 3.65894 2.95302 11.1565 10.4649 21.0726C15.4728 27.8445 22.5286 31.5153 28.9491 31.5153C32.8014 31.5153 33.2779 30.7 33.2779 29.2956V24.1775C33.2779 22.5468 33.6429 22.2214 34.8628 22.2214C35.7616 22.2214 37.3025 22.6446 40.8981 25.9097C45.0071 29.7793 45.6846 31.5153 47.9959 31.5153H54.0562C55.7877 31.5153 56.6535 30.7 56.154 29.091C55.6075 27.4874 53.6456 25.1608 51.0424 22.4028C49.6299 20.8307 47.5111 19.1378 46.869 18.2911C45.9702 17.2029 46.227 16.7191 46.869 15.7518C46.869 15.7518 54.2527 5.95656 55.0232 2.63111Z" fill="white"/>
</svg>
